<?xml version="1.0" encoding="UTF-8"?><svg id="Layer_1" xmlns="http://www.w3.org/2000/svg" viewBox="0 0 400 400"><defs><style>.cls-1{fill:#66499d;}.cls-2{fill:#ea4435;}.cls-3{fill:#547dbf;}.cls-4{fill:none;stroke:#231f20;stroke-linecap:round;stroke-linejoin:round;stroke-width:6px;}.cls-5{fill:#34a851;}.cls-6{fill:#f9bc15;}</style></defs><path class="cls-6" d="m94.96,166.75c-2.88-3.4-4.32-7.36-4.32-11.9s1.44-8.5,4.32-11.9c2.88-3.4,6.83-5.1,11.87-5.1h50.18c5.03,0,8.99,1.7,11.87,5.1,2.88,3.4,4.32,7.37,4.32,11.9s-1.44,8.5-4.32,11.9c-2.88,3.4-6.84,5.1-11.87,5.1h-50.18c-5.04,0-9-1.7-11.87-5.1Zm34.53,43.53c-2.88-3.4-4.32-7.36-4.32-11.9s1.44-8.5,4.32-11.9c2.88-3.4,6.83-5.1,11.87-5.1h119.25c5.03,0,8.99,1.7,11.87,5.1,2.88,3.4,4.32,7.37,4.32,11.9s-1.44,8.5-4.32,11.9c-2.88,3.4-6.84,5.1-11.87,5.1h-119.25c-5.04,0-9-1.7-11.87-5.1Zm103.6,43.53c-2.88-3.4-4.32-7.36-4.32-11.9s1.44-8.5,4.32-11.9c2.88-3.4,6.83-5.1,11.87-5.1h50.18c5.03,0,8.99,1.7,11.87,5.1,2.88,3.4,4.32,7.37,4.32,11.9s-1.44,8.5-4.32,11.9c-2.88,3.4-6.84,5.1-11.87,5.1h-50.18c-5.04,0-9-1.7-11.87-5.1Z"/><path class="cls-2" d="m95.75,123.21c-2.87-3.4-4.3-7.36-4.3-11.9s1.43-8.5,4.3-11.9c2.86-3.4,6.8-5.1,11.81-5.1h49.95c5.01,0,8.95,1.7,11.81,5.1,2.86,3.4,4.3,7.37,4.3,11.9s-1.44,8.5-4.3,11.9c-2.87,3.4-6.81,5.1-11.81,5.1h-49.95c-5.01,0-8.95-1.7-11.81-5.1Z"/><path class="cls-5" d="m95.75,297.24c-2.87-3.4-4.3-7.36-4.3-11.9s1.43-8.5,4.3-11.9c2.86-3.4,6.8-5.1,11.81-5.1h49.95c5.01,0,8.95,1.7,11.81,5.1,2.86,3.4,4.3,7.37,4.3,11.9s-1.44,8.5-4.3,11.9c-2.87,3.4-6.81,5.1-11.81,5.1h-49.95c-5.01,0-8.95-1.7-11.81-5.1Z"/><path class="cls-3" d="m130.12,79.7c-2.87-3.4-4.3-7.36-4.3-11.9s1.43-8.5,4.3-11.9c2.86-3.4,6.8-5.1,11.82-5.1h118.69c5.01,0,8.95,1.7,11.81,5.1,2.86,3.4,4.3,7.37,4.3,11.9s-1.44,8.5-4.3,11.9c-2.87,3.4-6.8,5.1-11.81,5.1h-118.69c-5.01,0-8.95-1.7-11.82-5.1Z"/><path class="cls-1" d="m130.12,340.75c-2.87-3.4-4.3-7.36-4.3-11.9s1.43-8.5,4.3-11.9c2.86-3.4,6.8-5.1,11.82-5.1h118.69c5.01,0,8.95,1.7,11.81,5.1,2.86,3.4,4.3,7.37,4.3,11.9s-1.44,8.5-4.3,11.9c-2.87,3.4-6.8,5.1-11.81,5.1h-118.69c-5.01,0-8.95-1.7-11.82-5.1Z"/><path class="cls-2" d="m233.23,123.21c-2.87-3.4-4.3-7.36-4.3-11.9s1.43-8.5,4.3-11.9c2.86-3.4,6.8-5.1,11.81-5.1h49.95c5.01,0,8.95,1.7,11.81,5.1,2.86,3.4,4.3,7.37,4.3,11.9s-1.44,8.5-4.3,11.9c-2.87,3.4-6.8,5.1-11.81,5.1h-49.95c-5.01,0-8.95-1.7-11.81-5.1Z"/><path class="cls-5" d="m233.23,297.24c-2.87-3.4-4.3-7.36-4.3-11.9s1.43-8.5,4.3-11.9c2.86-3.4,6.8-5.1,11.81-5.1h49.95c5.01,0,8.95,1.7,11.81,5.1,2.86,3.4,4.3,7.37,4.3,11.9s-1.44,8.5-4.3,11.9c-2.87,3.4-6.8,5.1-11.81,5.1h-49.95c-5.01,0-8.95-1.7-11.81-5.1Z"/><path class="cls-4" d="m367.91,275.55V119.87c0-11.36-6.06-21.86-15.9-27.55L217.18,14.49c-9.84-5.68-21.97-5.68-31.81,0L50.55,92.33c-9.84,5.68-15.9,16.18-15.9,27.55v155.68c0,11.36,6.06,21.86,15.9,27.55l134.82,77.84c9.84,5.68,21.97,5.68,31.81,0l134.82-77.84c9.84-5.68,15.9-16.18,15.9-27.55Z"/></svg>